<?xml version="1.0" encoding="UTF-8" standalone="no"?>
<!-- Created with Inkscape (http://www.inkscape.org/) -->

<svg
   xmlns:dc="http://purl.org/dc/elements/1.1/"
   xmlns:cc="http://creativecommons.org/ns#"
   xmlns:rdf="http://www.w3.org/1999/02/22-rdf-syntax-ns#"
   xmlns:svg="http://www.w3.org/2000/svg"
   xmlns="http://www.w3.org/2000/svg"
   xmlns:sodipodi="http://sodipodi.sourceforge.net/DTD/sodipodi-0.dtd"
   xmlns:inkscape="http://www.inkscape.org/namespaces/inkscape"
   width="100"
   height="100"
   id="svg3784"
   version="1.1"
   inkscape:version="0.48.4 r9939"
   sodipodi:docname="speed2.svg">
  <defs
     id="defs3786" />
  <sodipodi:namedview
     id="base"
     pagecolor="#37353b"
     bordercolor="#666666"
     borderopacity="1.0"
     inkscape:pageopacity="1"
     inkscape:pageshadow="2"
     inkscape:zoom="4.4268196"
     inkscape:cx="49.5338"
     inkscape:cy="49.292482"
     inkscape:current-layer="layer1"
     showgrid="true"
     inkscape:grid-bbox="true"
     inkscape:document-units="px"
     inkscape:window-width="1001"
     inkscape:window-height="906"
     inkscape:window-x="651"
     inkscape:window-y="173"
     inkscape:window-maximized="0" />
  <metadata
     id="metadata3789">
    <rdf:RDF>
      <cc:Work
         rdf:about="">
        <dc:format>image/svg+xml</dc:format>
        <dc:type
           rdf:resource="http://purl.org/dc/dcmitype/StillImage" />
        <dc:title />
      </cc:Work>
    </rdf:RDF>
  </metadata>
  <g
     id="layer1"
     inkscape:label="Layer 1"
     inkscape:groupmode="layer"
     transform="translate(0,52)">
    <path
       style="fill:#ffffff"
       inkscape:transform-center-x="-7.7121827"
       d="m 98.553191,-1.562203 c 0.02186,2.05714955 -2.838248,2.9788788 -4.257372,4.4683182 -1.419123,1.4894395 -2.838247,2.9788789 -4.257371,4.4683183 -1.419124,1.4894394 -2.838248,2.9788785 -4.257371,4.4683185 -1.419124,1.489439 -2.838248,2.978879 -4.257372,4.468318 -1.419124,1.489439 -2.838248,2.978879 -4.257371,4.468318 -1.419124,1.48944 -2.838248,2.978879 -4.257372,4.468318 -1.419124,1.48944 -2.838248,2.978879 -4.257372,4.468319 -1.419123,1.489439 -2.357578,3.678934 -4.257371,4.468318 -0.742992,0.308721 -1.608768,-0.03533 -2.413152,-0.05299 -0.804384,-0.01767 -1.608768,-0.03533 -2.413152,-0.053 -0.804384,-0.01767 -1.608768,-0.03533 -2.413152,-0.053 -0.804384,-0.01767 -1.608768,-0.03533 -2.413152,-0.053 -0.804385,-0.01767 -1.608769,-0.03533 -2.413153,-0.053 -0.804384,-0.01766 -1.608768,-0.03533 -2.413152,-0.05299 -0.804384,-0.01767 -1.608768,-0.03533 -2.413152,-0.053 -0.804384,-0.01767 -2.00966,0.643094 -2.413152,-0.053 -0.838842,-1.447138 1.598525,-2.938737 2.397788,-4.408106 0.799263,-1.469369 1.598526,-2.938737 2.397788,-4.408106 0.799263,-1.469368 1.598526,-2.938737 2.397788,-4.408106 0.799263,-1.469368 1.598526,-2.938737 2.397789,-4.408106 0.799262,-1.469368 1.598525,-2.938737 2.397788,-4.408105 0.799262,-1.469369 1.598525,-2.9387376 2.397788,-4.4081062 0.799262,-1.4693687 1.598525,-2.9387373 2.397788,-4.4081059 0.799263,-1.4693687 2.397788,-2.73542391 2.397788,-4.4081059 0,-1.6726818 -1.598525,-2.9387367 -2.397788,-4.4081051 -0.799263,-1.4693684 -1.598526,-2.9387368 -2.397788,-4.4081049 -0.799263,-1.469369 -1.598526,-2.938737 -2.397788,-4.408105 -0.799263,-1.469369 -1.598526,-2.938737 -2.397788,-4.408105 -0.799263,-1.469369 -1.598526,-2.938737 -2.397789,-4.408106 -0.799262,-1.469368 -1.598525,-2.938736 -2.397788,-4.408105 -0.799262,-1.469368 -1.598525,-2.938737 -2.397788,-4.408105 -0.799263,-1.469368 -3.270347,-2.981043 -2.397788,-4.408105 0.409392,-0.669557 1.569107,0.03918 2.353661,0.05877 0.784553,0.01959 1.569107,0.03918 2.35366,0.05877 0.784554,0.01959 1.569108,0.03918 2.353661,0.05877 0.784554,0.01959 1.569107,0.03918 2.353661,0.05877 0.784554,0.01959 1.569107,0.03918 2.353661,0.05877 0.784553,0.01959 1.569107,0.03918 2.35366,0.05877 0.784554,0.01959 1.569108,0.03918 2.353661,0.05877 0.784554,0.01959 1.632859,-0.251637 2.353661,0.05877 1.874521,0.807247 2.877909,2.894746 4.316863,4.342119 1.438954,1.447372 2.877908,2.894745 4.316863,4.342118 1.438954,1.447373 2.877908,2.894746 4.316863,4.342119 1.438954,1.447372 2.877908,2.894745 4.316863,4.342118 1.438954,1.447373 2.877908,2.894746 4.316862,4.342118 1.438955,1.447373 2.877909,2.894746 4.316863,4.342119 1.438955,1.4473728 2.877909,2.8947457 4.316863,4.3421185 1.438954,1.4473728 4.295174,2.3012836 4.316863,4.3421185 z"
       id="path3049-7-8"
       inkscape:connector-curvature="0"
       sodipodi:nodetypes="sssssssssssssssssssssssssssssssssssssssssssssssss" />
    <path
       style="fill:#ffffff"
       d="m 0.85097495,-23.042494 c 1.30880115,-1.308801 3.70184875,0 5.55277315,0 1.8509244,0 3.7018489,0 5.5527729,0 1.850925,0 3.701849,0 5.552773,0 1.850925,0 3.701849,0 5.552773,0 1.850925,0 3.701849,0 5.552774,0 1.850924,0 3.701848,0 5.552773,0 1.850924,0 3.701848,0 5.552773,0 1.850924,0 3.978283,-0.973089 5.552773,0 0.373404,0.230776 0.39262,0.785241 0.588931,1.177861 0.19631,0.39262 0.39262,0.785241 0.58893,1.177861 0.19631,0.392621 0.39262,0.785241 0.58893,1.177861 0.196311,0.392621 0.392621,0.785241 0.588931,1.177861 0.19631,0.392621 0.39262,0.785241 0.588931,1.177862 0.19631,0.39262 0.39262,0.78524 0.58893,1.177861 0.19631,0.39262 0.39262,0.78524 0.58893,1.177861 0.196311,0.39262 0.819707,0.804457 0.588931,1.177861 -1.076295,1.741482 -4.094469,0 -6.141704,0 -2.047234,0 -4.094469,0 -6.141703,0 -2.047235,0 -4.094469,0 -6.141704,0 -2.047234,0 -4.094469,0 -6.141704,0 -2.047234,0 -4.094469,0 -6.141703,0 -2.047235,0 -4.094469,0 -6.141704,0 -2.047234,0 -4.0944689,0 -6.1417034,0 -2.0472346,0 -4.6940902,1.447613 -6.14170365,0 -0.27762453,-0.277625 0,-0.785241 0,-1.177861 0,-0.392621 0,-0.785241 0,-1.177861 0,-0.392621 0,-0.785241 0,-1.177861 0,-0.392621 0,-0.785241 0,-1.177862 0,-0.39262 0,-0.78524 0,-1.177861 0,-0.39262 0,-0.78524 0,-1.177861 0,-0.39262 0,-0.785241 0,-1.177861 0,-0.39262 -0.27762453,-0.900236 0,-1.177861 z"
       id="rect3143"
       inkscape:connector-curvature="0"
       sodipodi:nodetypes="sssssssssssssssssssssssssssssssss" />
    <path
       style="fill:#ffffff"
       d="m 0.51440828,9.264745 c 1.46744382,-1.4674438 4.15055792,0 6.22583682,0 2.075279,0 4.1505579,0 6.2258369,0 2.075279,0 4.150558,0 6.225837,0 2.075279,0 4.150558,0 6.225837,0 2.075279,0 4.150558,0 6.225836,0 2.075279,0 4.150558,0 6.225837,0 2.075279,0 4.150558,0 6.225837,0 2.075279,0 5.159763,-1.7805249 6.225837,0 0.228808,0.3821483 -0.420665,0.785241 -0.630997,1.177861 -0.210333,0.39262 -0.420665,0.785241 -0.630997,1.177861 -0.210333,0.39262 -0.420665,0.785241 -0.630997,1.177861 -0.210333,0.39262 -0.420665,0.785241 -0.630998,1.177861 -0.210332,0.39262 -0.420664,0.785241 -0.630997,1.177861 -0.210332,0.39262 -0.420664,0.785241 -0.630997,1.177861 -0.210332,0.39262 -0.420665,0.785241 -0.630997,1.177861 -0.210332,0.39262 -0.248849,0.949053 -0.630997,1.177861 -1.600066,0.958026 -3.729893,0 -5.59484,0 -1.864946,0 -3.729893,0 -5.594839,0 -1.864947,0 -3.729894,0 -5.59484,0 -1.864947,0 -3.729893,0 -5.59484,0 -1.864946,0 -3.729893,0 -5.59484,0 -1.864946,0 -3.729893,0 -5.594839,0 -1.8649469,0 -3.7298934,0 -5.59484,0 -1.8649466,0 -4.2761234,1.318716 -5.59483972,0 -0.2776245,-0.277625 0,-0.785241 0,-1.177861 0,-0.39262 0,-0.785241 0,-1.177861 0,-0.39262 0,-0.785241 0,-1.177861 0,-0.39262 0,-0.785241 0,-1.177861 0,-0.39262 0,-0.785241 0,-1.177861 0,-0.39262 0,-0.785241 0,-1.177861 0,-0.39262 0,-0.785241 0,-1.177861 0,-0.39262 -0.2776245,-0.9002365 0,-1.177861 z"
       id="rect3143-7"
       inkscape:connector-curvature="0"
       sodipodi:nodetypes="sssssssssssssssssssssssssssssssss" />
    <path
       style="fill:#ffffff"
       d="m 0.85094463,-6.552666 c 1.58642567,-1.5864257 4.48708947,0 6.73063417,0 2.2435447,0 4.4870892,0 6.7306342,0 2.243545,0 4.487089,0 6.730634,0 2.243545,0 4.48709,0 6.730634,0 2.243545,0 4.48709,0 6.730634,0 2.243545,0 4.48709,0 6.730635,0 2.243544,0 4.487089,0 6.730634,0 2.243545,0 4.837372,-1.2037659 6.730634,0 0.182145,0.115811 0.183138,0.3909179 0.274708,0.5863769 0.09157,0.1954589 0.183138,0.3909179 0.274708,0.5863768 0.09157,0.195459 0.183138,0.390918 0.274707,0.5863769 0.09157,0.195459 0.183139,0.3909179 0.274708,0.5863769 0.09157,0.195459 0.183139,0.3909179 0.274708,0.5863769 0.09157,0.1954589 0.183138,0.3909179 0.274708,0.5863768 0.09157,0.195459 0.183138,0.390918 0.274707,0.5863769 0.09157,0.195459 0.274349,0.370532 0.274708,0.5863769 3.61e-4,0.2173877 -0.183139,0.3943228 -0.274708,0.5914842 -0.09157,0.1971615 -0.183138,0.39432288 -0.274707,0.5914843 -0.09157,0.19716142 -0.183139,0.39432283 -0.274708,0.59148425 -0.09157,0.19716142 -0.183139,0.39432283 -0.274708,0.59148425 -0.09157,0.19716142 -0.183139,0.39432283 -0.274708,0.5914843 -0.09157,0.1971614 -0.183138,0.3943228 -0.274707,0.5914842 -0.09157,0.1971614 -0.183139,0.3943228 -0.274708,0.5914843 -0.09157,0.1971614 -0.09145,0.4745409 -0.274708,0.5914842 -1.89126,1.2069093 -4.487089,0 -6.730634,0 -2.243545,0 -4.48709,0 -6.730634,0 -2.243545,0 -4.48709,0 -6.730635,0 -2.243544,0 -4.487089,0 -6.730634,0 -2.243544,0 -4.487089,0 -6.730634,0 -2.243545,0 -4.487089,0 -6.730634,0 -2.243545,0 -4.4870895,0 -6.7306342,0 -2.2435447,0 -5.1442085,1.5864257 -6.73063417,0 -0.27762453,-0.2776245 0,-0.7852407 0,-1.1778611 0,-0.3926204 0,-0.78524078 0,-1.17786115 0,-0.39262038 0,-0.78524075 0,-1.17786113 0,-0.39262042 0,-0.78524072 0,-1.17786112 0,-0.3926204 0,-0.7852408 0,-1.1778611 0,-0.3926204 0,-0.7852408 0,-1.1778612 0,-0.3926203 0,-0.7852407 0,-1.1778611 0,-0.3926204 -0.27762453,-0.9002366 0,-1.1778611 z"
       id="rect3143-7-8"
       inkscape:connector-curvature="0"
       sodipodi:nodetypes="sssssssssssssssssssssssssssssssssssssssss" />
  </g>
</svg>
